<?xml version="1.0" standalone="no"?>
<!DOCTYPE svg PUBLIC "-//W3C//DTD SVG 20010904//EN"
 "http://www.w3.org/TR/2001/REC-SVG-20010904/DTD/svg10.dtd">
<svg version="1.0" xmlns="http://www.w3.org/2000/svg"
 width="500.000000pt" height="500.000000pt" viewBox="0 0 500.000000 500.000000"
 preserveAspectRatio="xMidYMid meet">

<g transform="translate(0.000000,500.000000) scale(0.100000,-0.100000)"
fill="#000000" stroke="none">
<path d="M2925 3709 c-159 -71 -304 -135 -322 -141 -18 -6 -30 -15 -27 -19 2
-5 48 -30 100 -56 53 -26 98 -53 100 -59 3 -6 -15 -44 -39 -85 l-44 -74 51
-35 c57 -40 129 -138 148 -203 18 -61 15 -212 -6 -267 -53 -142 -195 -252
-343 -267 -62 -7 -162 11 -219 38 -33 15 -47 17 -69 9 -25 -10 -33 -4 -148
108 -157 152 -173 163 -250 169 -79 6 -139 -22 -180 -84 -62 -94 -45 -195 51
-287 109 -104 131 -122 159 -124 15 -1 48 -6 73 -11 54 -12 130 -21 113 -14
-20 7 11 33 39 33 13 0 43 -14 68 -30 25 -16 55 -30 68 -30 52 0 155 69 196
133 14 21 26 27 55 27 62 0 169 28 224 57 63 34 58 27 307 438 128 211 163
265 172 265 5 0 36 -19 70 -42 33 -24 73 -51 89 -61 l29 -19 0 54 c0 29 -7
180 -15 336 -16 297 -21 324 -67 356 -44 31 -84 19 -383 -115z"/>
<path d="M2385 3249 c-68 -24 -107 -49 -152 -99 -120 -132 -123 -331 -6 -461
40 -44 42 -45 69 -23 10 8 13 13 7 9 -7 -3 -13 -1 -13 5 0 6 -13 28 -30 48
-91 114 -78 291 27 394 74 71 103 83 208 83 76 0 97 -4 139 -25 59 -30 128
-104 145 -157 12 -36 41 -56 41 -29 0 6 5 4 10 -4 11 -16 3 39 -10 75 -17 43
-72 106 -124 140 -97 65 -205 80 -311 44z"/>
<path d="M2487 3174 c-15 -15 -7 -45 11 -42 9 2 17 12 17 22 0 20 -16 31 -28
20z"/>
<path d="M2480 2986 l0 -84 49 -36 c27 -20 56 -36 65 -36 29 0 17 26 -29 60
l-45 34 0 73 c0 66 -2 73 -20 73 -18 0 -20 -7 -20 -84z"/>
<path d="M2243 2924 c-8 -21 13 -42 28 -27 13 13 5 43 -11 43 -6 0 -13 -7 -17
-16z"/>
<path d="M1380 1405 l0 -285 60 0 60 0 2 178 3 177 79 -137 c76 -134 79 -138
111 -138 30 0 37 6 66 58 17 31 52 93 78 137 l46 80 3 -177 2 -178 60 0 60 0
0 285 0 285 -59 0 -60 0 -29 -52 c-17 -29 -40 -71 -53 -93 -38 -68 -44 -78
-78 -138 -18 -32 -35 -57 -36 -55 -10 10 -185 322 -185 329 0 5 -29 9 -65 9
l-65 0 0 -285z"/>
<path d="M2285 1571 c-119 -31 -184 -126 -172 -252 7 -84 56 -153 127 -183
127 -53 274 -7 329 103 56 111 17 249 -87 307 -45 26 -146 39 -197 25z m124
-105 c66 -35 88 -140 43 -203 -44 -61 -140 -67 -187 -11 -95 112 18 279 144
214z"/>
<path d="M2690 1345 l0 -225 59 0 59 0 4 145 c3 141 4 145 29 171 18 18 41 28
73 31 l46 6 0 48 0 49 -38 0 c-27 0 -47 -8 -72 -30 -44 -37 -50 -37 -50 0 0
30 -1 30 -55 30 l-55 0 0 -225z"/>
</g>
</svg>
